# xmcd
#
# Track frame offsets: 
#        150
#        21542
#        38782
#        60167
#
# Disc length: 1030 seconds
#
# Revision: 1
# Processed by: cddbd v1.5.2PL0 Copyright (c) Steve Scherf et al.
# Submitted via: ExactAudioCopy v0.99pb5
#
DISCID=2a040404
DTITLE=Emyli - Don't Vanish Love
DYEAR=2006
DGENRE=JPop
TTITLE0=Don't Vanish Love
TTITLE1=Far, Far Away
TTITLE2=Don't Vanish Love (Instrumental)
TTITLE3=Far, Far Away (Instrumental)
EXTD=YEAR: 1995/4/21
EXTT0=
EXTT1=
EXTT2=
EXTT3=
PLAYORDER=
